<svg xmlns="http://www.w3.org/2000/svg">
<defs>
<g id="briefcase">
<path
        d="M19 5H3C1.89543 5 1 5.89543 1 7V17C1 18.1046 1.89543 19 3 19H19C20.1046 19 21 18.1046 21 17V7C21 5.89543 20.1046 5 19 5Z"
        stroke="inherit"
        stroke-width="2"
        stroke-linecap="round"
        stroke-linejoin="round"
      />
      <path
        d="M15 19V3C15 2.46957 14.7893 1.96086 14.4142 1.58579C14.0391 1.21071 13.5304 1 13 1H9C8.46957 1 7.96086 1.21071 7.58579 1.58579C7.21071 1.96086 7 2.46957 7 3V19"
        stroke="inherit"
        stroke-width="2"
        stroke-linecap="round"
        stroke-linejoin="round"
      />
      </g>
      <g id="drop">
       <path
        d="M8.995 1L14.655 6.66C15.7743 7.77861 16.5368 9.20406 16.8459 10.7561C17.155 12.308 16.9969 13.9168 16.3915 15.379C15.7862 16.8411 14.7608 18.0908 13.4451 18.9701C12.1294 19.8494 10.5825 20.3187 9 20.3187C7.41753 20.3187 5.8706 19.8494 4.5549 18.9701C3.23919 18.0908 2.21381 16.8411 1.60847 15.379C1.00312 13.9168 0.844998 12.308 1.15411 10.7561C1.46321 9.20406 2.22566 7.77861 3.345 6.66L8.995 1Z"
        stroke-width="2"
        stroke-linecap="round"
        stroke-linejoin="round"
      />
      </g>
      <g id="paper">
      <path
        d="M11 1L1 6L11 11L21 6L11 1Z"
        stroke-width="2"
        stroke-linecap="round"
        stroke-linejoin="round"
      />
      <path
        d="M1 16L11 21L21 16"
        stroke-width="2"
        stroke-linecap="round"
        stroke-linejoin="round"
      />
      <path
        d="M1 11L11 16L21 11"
        stroke-width="2"
        stroke-linecap="round"
        stroke-linejoin="round"
      />
      </g>
      <g id="magnifer">
      <path
        d="M11.6939 22.1428C17.4647 22.1428 22.1429 17.4647 22.1429 11.6939C22.1429 5.92306 17.4647 1.24489 11.6939 1.24489C5.9231 1.24489 1.24493 5.92306 1.24493 11.6939C1.24493 17.4647 5.9231 22.1428 11.6939 22.1428Z"
        stroke-width="2"
        stroke-linecap="round"
        stroke-linejoin="round"
      />
      <path
        d="M24.7551 24.7551L19.0735 19.0735"
        stroke-width="2"
        stroke-linecap="round"
        stroke-linejoin="round"
      />
      </g>
      <g id="calendar">
      <path
        d="M20 3.85715H4.00001C2.73764 3.85715 1.71429 4.8805 1.71429 6.14286V22.1429C1.71429 23.4052 2.73764 24.4286 4.00001 24.4286H20C21.2624 24.4286 22.2857 23.4052 22.2857 22.1429V6.14286C22.2857 4.8805 21.2624 3.85715 20 3.85715Z"
        stroke-width="2"
        stroke-linecap="round"
        stroke-linejoin="round"
      />
      <path
        d="M16.5714 1.57143V6.14286"
        stroke-width="2"
        stroke-linecap="round"
        stroke-linejoin="round"
      />
      <path
        d="M7.42859 1.57143V6.14286"
        stroke-width="2"
        stroke-linecap="round"
        stroke-linejoin="round"
      />
      <path
        d="M1.71429 10.7143H22.2857"
        stroke-width="2"
        stroke-linecap="round"
        stroke-linejoin="round"
      />
      </g>
      <g id="geo">
      <path
        d="M4.57141 14.8571L26.2857 4.57143L16 26.2857L13.7143 17.1429L4.57141 14.8571Z"
        stroke-width="2"
        stroke-linecap="round"
        stroke-linejoin="round"
      />
      </g>
      <g id="clock">
      <path
        d="M10 18.5714C14.7339 18.5714 18.5714 14.7339 18.5714 10C18.5714 5.26613 14.7339 1.42857 10 1.42857C5.26615 1.42857 1.42859 5.26613 1.42859 10C1.42859 14.7339 5.26615 18.5714 10 18.5714Z"
        stroke-width="2"
        stroke-linecap="round"
        stroke-linejoin="round"
      />
      <path
        d="M10 4.85715V10L13.4286 11.7143"
        stroke-width="2"
        stroke-linecap="round"
        stroke-linejoin="round"
      />
      </g>
      <g id="phone">
      <path
        d="M13.9381 5C14.9149 5.19057 15.8125 5.66826 16.5162 6.37194C17.2199 7.07561 17.6976 7.97326 17.8881 8.95M13.9381 1C15.9674 1.22544 17.8597 2.13417 19.3044 3.57701C20.749 5.01984 21.6601 6.91101 21.8881 8.94M20.8881 16.92V19.92C20.8892 20.1985 20.8322 20.4742 20.7206 20.7293C20.6091 20.9845 20.4454 21.2136 20.2402 21.4019C20.035 21.5901 19.7927 21.7335 19.5289 21.8227C19.265 21.9119 18.9855 21.9451 18.7081 21.92C15.631 21.5856 12.6751 20.5341 10.0781 18.85C7.66194 17.3147 5.61345 15.2662 4.07812 12.85C2.38809 10.2412 1.33636 7.27099 1.00812 4.18C0.983127 3.90347 1.01599 3.62476 1.10462 3.36162C1.19324 3.09849 1.33569 2.85669 1.52288 2.65162C1.71008 2.44655 1.93792 2.28271 2.19191 2.17052C2.44589 2.05833 2.72046 2.00026 2.99812 2H5.99812C6.48342 1.99522 6.95391 2.16708 7.32188 2.48353C7.68985 2.79999 7.93019 3.23945 7.99812 3.72C8.12474 4.68007 8.35957 5.62273 8.69812 6.53C8.83266 6.88792 8.86178 7.27691 8.78202 7.65088C8.70227 8.02485 8.51698 8.36811 8.24812 8.64L6.97812 9.91C8.40167 12.4135 10.4746 14.4864 12.9781 15.91L14.2481 14.64C14.52 14.3711 14.8633 14.1858 15.2372 14.1061C15.6112 14.0263 16.0002 14.0555 16.3581 14.19C17.2654 14.5286 18.2081 14.7634 19.1681 14.89C19.6539 14.9585 20.0975 15.2032 20.4146 15.5775C20.7318 15.9518 20.9003 16.4296 20.8881 16.92Z"
        stroke-width="2"
        stroke-linecap="round"
        stroke-linejoin="round"
      />
      </g>
      <g id="lines">
      <path
        d="M13.2857 5.28571H1.28571"
        stroke-width="2"
        stroke-linecap="round"
        stroke-linejoin="round"
      />
      <path
        d="M16.7143 1.85714H1.28571"
        stroke-width="2"
        stroke-linecap="round"
        stroke-linejoin="round"
      />
      <path
        d="M16.7143 8.71429H1.28571"
        stroke-width="2"
        stroke-linecap="round"
        stroke-linejoin="round"
      />
      <path
        d="M13.2857 12.1429H1.28571"
        stroke-width="2"
        stroke-linecap="round"
        stroke-linejoin="round"
      />
      </g>
      <g id="left">
<path
        d="M15 8H1"
        stroke-width="2"
        stroke-linecap="round"
        stroke-linejoin="round"
      />
      <path
        d="M8 15L1 8L8 1"
        stroke-width="2"
        stroke-linecap="round"
        stroke-linejoin="round"
      />
      </g>
      <g id="detail">
      <path
        d="M12 14.9388C13.623 14.9388 14.9388 13.623 14.9388 12C14.9388 10.377 13.623 9.06122 12 9.06122C10.377 9.06122 9.06122 10.377 9.06122 12C9.06122 13.623 10.377 14.9388 12 14.9388Z"
        stroke-width="2"
        stroke-linecap="round"
        stroke-linejoin="round"
      />
      <path
        d="M19.249 14.9388C19.1186 15.2342 19.0797 15.562 19.1373 15.8798C19.1949 16.1975 19.3464 16.4908 19.5722 16.7216L19.631 16.7804C19.8132 16.9624 19.9577 17.1784 20.0563 17.4163C20.1549 17.6541 20.2056 17.9091 20.2056 18.1665C20.2056 18.424 20.1549 18.6789 20.0563 18.9168C19.9577 19.1546 19.8132 19.3707 19.631 19.5527C19.4491 19.7348 19.233 19.8793 18.9951 19.9779C18.7573 20.0765 18.5024 20.1273 18.2449 20.1273C17.9874 20.1273 17.7325 20.0765 17.4946 19.9779C17.2568 19.8793 17.0407 19.7348 16.8588 19.5527L16.8 19.4939C16.5691 19.268 16.2759 19.1166 15.9581 19.0589C15.6404 19.0013 15.3126 19.0402 15.0171 19.1706C14.7274 19.2948 14.4803 19.501 14.3063 19.7638C14.1322 20.0266 14.0388 20.3346 14.0375 20.6498V20.8163C14.0375 21.3359 13.8311 21.8343 13.4637 22.2017C13.0963 22.5691 12.598 22.7755 12.0784 22.7755C11.5588 22.7755 11.0604 22.5691 10.693 22.2017C10.3256 21.8343 10.1192 21.3359 10.1192 20.8163V20.7282C10.1116 20.4039 10.0066 20.0895 9.81797 19.8257C9.62929 19.5619 9.36562 19.3609 9.06122 19.249C8.76576 19.1186 8.43801 19.0797 8.12024 19.1373C7.80246 19.1949 7.50923 19.3464 7.27837 19.5722L7.21959 19.631C7.03763 19.8132 6.82156 19.9577 6.58372 20.0563C6.34588 20.1549 6.09093 20.2056 5.83347 20.2056C5.576 20.2056 5.32106 20.1549 5.08322 20.0563C4.84538 19.9577 4.6293 19.8132 4.44734 19.631C4.26519 19.4491 4.12068 19.233 4.02208 18.9951C3.92349 18.7573 3.87274 18.5024 3.87274 18.2449C3.87274 17.9874 3.92349 17.7325 4.02208 17.4946C4.12068 17.2568 4.26519 17.0407 4.44734 16.8588L4.50612 16.8C4.73195 16.5691 4.88344 16.2759 4.94106 15.9581C4.99868 15.6404 4.95978 15.3126 4.82939 15.0171C4.70521 14.7274 4.49902 14.4803 4.23621 14.3063C3.97339 14.1322 3.66542 14.0388 3.3502 14.0375H3.18367C2.66406 14.0375 2.16574 13.8311 1.79832 13.4637C1.4309 13.0963 1.22449 12.598 1.22449 12.0784C1.22449 11.5588 1.4309 11.0604 1.79832 10.693C2.16574 10.3256 2.66406 10.1192 3.18367 10.1192H3.27183C3.59607 10.1116 3.91053 10.0066 4.17433 9.81797C4.43813 9.62929 4.63907 9.36562 4.75102 9.06122C4.88142 8.76576 4.92031 8.43801 4.8627 8.12024C4.80508 7.80246 4.65358 7.50923 4.42775 7.27837L4.36898 7.21959C4.18682 7.03763 4.04231 6.82156 3.94372 6.58372C3.84512 6.34588 3.79437 6.09093 3.79437 5.83347C3.79437 5.576 3.84512 5.32106 3.94372 5.08322C4.04231 4.84538 4.18682 4.6293 4.36898 4.44734C4.55093 4.26519 4.76701 4.12068 5.00485 4.02208C5.24269 3.92349 5.49763 3.87274 5.7551 3.87274C6.01257 3.87274 6.26751 3.92349 6.50535 4.02208C6.74319 4.12068 6.95927 4.26519 7.14122 4.44734L7.2 4.50612C7.43087 4.73195 7.7241 4.88344 8.04187 4.94106C8.35965 4.99868 8.68739 4.95978 8.98286 4.82939H9.06122C9.35096 4.70521 9.59806 4.49902 9.77211 4.23621C9.94615 3.97339 10.0396 3.66542 10.0408 3.3502V3.18367C10.0408 2.66406 10.2472 2.16574 10.6146 1.79832C10.9821 1.4309 11.4804 1.22449 12 1.22449C12.5196 1.22449 13.0179 1.4309 13.3854 1.79832C13.7528 2.16574 13.9592 2.66406 13.9592 3.18367V3.27183C13.9604 3.58705 14.0538 3.89503 14.2279 4.15784C14.4019 4.42066 14.649 4.62684 14.9388 4.75102C15.2342 4.88142 15.562 4.92031 15.8798 4.8627C16.1975 4.80508 16.4908 4.65358 16.7216 4.42775L16.7804 4.36898C16.9624 4.18682 17.1784 4.04231 17.4163 3.94372C17.6541 3.84512 17.9091 3.79437 18.1665 3.79437C18.424 3.79437 18.6789 3.84512 18.9168 3.94372C19.1546 4.04231 19.3707 4.18682 19.5527 4.36898C19.7348 4.55093 19.8793 4.76701 19.9779 5.00485C20.0765 5.24269 20.1273 5.49763 20.1273 5.7551C20.1273 6.01257 20.0765 6.26751 19.9779 6.50535C19.8793 6.74319 19.7348 6.95927 19.5527 7.14122L19.4939 7.2C19.268 7.43087 19.1166 7.7241 19.0589 8.04187C19.0013 8.35965 19.0402 8.68739 19.1706 8.98286V9.06122C19.2948 9.35096 19.501 9.59806 19.7638 9.77211C20.0266 9.94615 20.3346 10.0396 20.6498 10.0408H20.8163C21.3359 10.0408 21.8343 10.2472 22.2017 10.6146C22.5691 10.9821 22.7755 11.4804 22.7755 12C22.7755 12.5196 22.5691 13.0179 22.2017 13.3854C21.8343 13.7528 21.3359 13.9592 20.8163 13.9592H20.7282C20.4129 13.9604 20.105 14.0538 19.8422 14.2279C19.5793 14.4019 19.3732 14.649 19.249 14.9388V14.9388Z"
        stroke-width="2"
        stroke-linecap="round"
        stroke-linejoin="round"
      />
      </g>
      <g id="down">
      <path
        d="M9.14288 12.5714L16 19.4286L22.8572 12.5714"
        stroke-width="2"
        stroke-linecap="round"
        stroke-linejoin="round"
      />
      </g>
      <g id="plus">
      <path
        d="M6 1V11"
        stroke-width="2"
        stroke-linecap="round"
        stroke-linejoin="round"
      />
      <path
        d="M1 6H11"
        stroke-width="2"
        stroke-linecap="round"
        stroke-linejoin="round"
      />
      </g>
      <g id="cross">
      <path
        d="M14.8571 1.14285L1.14286 14.8571"
        stroke-width="2"
        stroke-linecap="round"
        stroke-linejoin="round"
      />
      <path
        d="M1.14286 1.14285L14.8571 14.8571"
        stroke-width="2"
        stroke-linecap="round"
        stroke-linejoin="round"
      />
      </g>
      </defs>
      </svg>
      

      

      